<?xml version="1.0" encoding="utf-8"?>
<!DOCTYPE svg PUBLIC "-//W3C//DTD SVG 20010904//EN" "http://www.w3.org/TR/2001/REC-SVG-20010904/DTD/svg10.dtd">
<svg version="1.0" xmlns="http://www.w3.org/2000/svg" width="1026pt" height="1026pt" viewBox="0 0 1026 1026" style="" preserveAspectRatio="xMidYMid meet">
<g fill="#FDFDFDFD" stroke="#FDFDFDFD">
<path d="M 348.500 328.066 C 333.211 330.153 318.163 334.949 302.500 342.729 C 287.413 350.222 277.529 357.478 263.991 371.000 C 251.560 383.416 244.058 393.747 236.509 408.847 C 211.201 459.472 215.524 526.263 247.708 581.873 C 264.142 610.268 288.565 638.160 324.451 669.517 C 344.477 687.014 354.394 694.972 381.007 714.899 C 426.814 749.198 466.454 774.203 507.986 794.997 L 522.472 802.250 536.486 794.998 C 598.735 762.786 657.304 723.826 702.500 684.565 C 753.749 640.047 781.242 607.840 799.016 571.500 C 809.408 550.254 815.204 530.822 818.057 507.660 C 819.848 493.126 818.748 461.369 816.007 448.500 C 806.171 402.305 779.184 366.861 736.939 344.654 C 692.071 321.069 644.535 321.758 594.607 346.718 C 572.102 357.969 553.018 371.610 526.543 395.372 L 520.000 401.244 513.404 395.372 C 474.919 361.113 432.992 337.940 395.000 329.933 C 383.907 327.595 359.217 326.604 348.500 328.066 M 392.000 359.933 C 405.640 363.280 418.415 368.159 434.048 375.991 C 457.791 387.886 474.650 400.379 507.251 430.238 C 513.714 436.157 519.726 441.000 520.611 441.000 C 521.496 441.000 528.358 435.036 535.860 427.746 C 560.534 403.770 574.267 392.688 593.500 381.236 C 639.249 353.996 679.490 349.930 718.898 368.568 C 758.327 387.217 782.955 420.658 789.078 463.864 C 790.818 476.138 789.716 504.812 787.017 517.500 C 782.405 539.186 773.322 561.278 761.259 580.153 L 755.729 588.807 755.906 573.153 C 756.003 564.544 755.345 548.500 754.442 537.500 C 752.480 513.595 752.184 470.575 753.913 460.516 C 754.573 456.675 755.842 452.727 756.734 451.742 C 758.233 450.085 758.205 449.752 756.365 447.287 C 755.271 445.822 753.208 443.751 751.779 442.684 L 749.181 440.745 741.841 445.315 C 731.728 451.611 724.615 454.477 690.823 465.874 C 656.151 477.567 646.540 481.261 630.500 489.055 C 589.963 508.753 563.516 535.785 542.012 579.500 C 525.962 612.128 516.039 645.933 511.338 684.000 L 509.547 698.500 508.326 684.508 C 507.655 676.812 506.150 664.662 504.983 657.508 C 497.751 613.197 481.172 575.637 455.321 545.000 C 440.794 527.783 426.087 515.504 400.208 498.985 C 370.150 479.798 354.068 468.986 346.466 462.857 C 342.048 459.295 337.637 456.075 336.665 455.702 C 335.423 455.225 333.694 456.146 330.853 458.796 L 326.808 462.569 329.042 466.856 C 331.166 470.930 331.248 471.940 330.711 487.321 C 330.369 497.120 328.752 513.787 326.611 529.586 C 320.789 572.540 319.892 596.071 323.203 619.000 C 323.799 623.125 324.334 627.319 324.393 628.321 C 324.520 630.474 300.428 606.146 291.397 595.000 C 270.806 569.589 257.385 541.241 251.863 511.500 C 248.935 495.729 248.678 468.143 251.332 454.500 C 260.988 404.867 297.853 367.752 346.655 358.532 C 357.731 356.440 380.650 357.148 392.000 359.933 M 727.601 471.439 C 723.050 478.072 712.203 493.850 703.496 506.500 C 694.789 519.150 679.042 542.100 668.503 557.500 C 657.964 572.900 648.027 587.344 646.421 589.599 L 643.501 593.698 639.649 585.599 C 631.500 568.463 627.738 554.522 625.726 534.000 C 625.036 526.970 624.062 521.549 623.500 521.612 C 621.231 521.867 620.029 526.879 620.015 536.140 C 619.988 553.490 624.592 571.398 633.643 589.155 L 639.074 599.811 623.215 623.655 C 614.492 636.770 603.517 653.575 598.826 661.000 C 594.136 668.425 586.238 680.710 581.277 688.299 L 572.256 702.098 570.506 697.799 C 563.018 679.402 558.503 660.731 556.652 640.500 C 555.715 630.264 555.149 627.500 553.991 627.500 C 551.990 627.500 551.259 631.605 551.118 643.619 C 550.929 659.779 553.655 672.699 562.619 698.131 L 567.071 710.763 558.690 725.131 C 554.081 733.034 549.252 741.300 547.960 743.500 C 541.380 754.703 533.363 763.137 525.086 767.563 L 520.735 769.891 517.118 762.695 L 513.500 755.500 513.579 737.000 C 513.781 690.079 525.529 632.081 542.748 593.000 C 566.891 538.207 597.603 508.381 652.405 486.506 C 669.518 479.675 736.559 457.154 736.187 458.361 C 736.015 458.920 732.151 464.805 727.601 471.439 M 747.413 543.500 C 748.493 555.705 749.014 568.567 748.750 576.500 C 748.023 598.364 745.682 602.418 717.547 630.534 C 685.539 662.521 648.664 692.333 607.500 719.505 C 585.357 734.120 557.507 751.301 556.423 751.014 C 556.038 750.912 555.360 751.417 554.916 752.136 C 554.472 752.854 553.820 753.154 553.468 752.801 C 552.100 751.433 573.322 715.608 600.443 673.500 C 624.138 636.710 635.238 620.123 636.480 619.646 C 637.071 619.419 643.392 620.096 650.527 621.150 C 657.662 622.204 670.482 623.337 679.016 623.667 C 692.994 624.209 694.675 624.096 695.978 622.526 C 698.310 619.717 695.222 618.373 684.756 617.639 C 679.665 617.282 668.001 615.996 658.835 614.781 L 642.170 612.572 643.740 609.536 C 645.632 605.876 666.516 574.473 683.998 549.000 C 690.981 538.825 705.164 518.125 715.516 503.000 C 725.868 487.875 736.823 472.125 739.861 468.000 L 745.384 460.500 745.514 492.000 C 745.600 512.901 746.239 530.229 747.413 543.500 M 397.198 505.999 C 430.615 527.521 448.584 545.021 466.506 573.500 C 490.427 611.510 501.085 655.856 504.000 729.496 C 504.560 743.646 505.294 756.321 505.630 757.663 C 506.192 759.901 505.676 759.707 499.372 755.301 C 487.028 746.674 487.147 746.862 462.662 697.480 C 435.454 642.609 411.027 595.168 387.305 551.133 C 377.716 533.331 366.465 512.181 362.305 504.133 C 358.144 496.085 352.999 486.259 350.870 482.297 C 348.742 478.336 347.000 474.676 347.000 474.165 C 347.000 473.654 354.627 478.245 363.948 484.368 C 373.269 490.490 388.232 500.225 397.198 505.999 M 352.018 502.000 C 358.721 514.925 365.721 528.250 367.574 531.612 C 369.427 534.973 370.656 538.011 370.305 538.362 C 369.954 538.713 370.218 539.000 370.892 539.000 C 371.566 539.000 371.840 539.450 371.500 540.000 C 371.160 540.550 371.434 541.000 372.108 541.000 C 372.782 541.000 373.055 541.279 372.714 541.619 C 372.374 541.960 372.753 542.896 373.557 543.700 C 374.361 544.504 374.763 545.575 374.450 546.081 C 374.138 546.586 374.385 547.000 375.000 547.000 C 375.615 547.000 375.840 547.450 375.500 548.000 C 375.160 548.550 375.347 549.000 375.915 549.000 C 377.393 549.000 380.216 554.842 379.386 556.184 C 378.998 556.812 379.136 557.034 379.699 556.686 C 380.952 555.912 383.272 560.750 382.358 562.229 C 381.931 562.921 382.167 563.015 383.015 562.490 C 383.985 561.891 384.164 562.132 383.681 563.388 C 383.319 564.332 383.413 564.863 383.890 564.568 C 384.709 564.062 403.000 597.655 403.000 599.664 C 403.000 600.232 400.329 600.307 396.250 599.853 C 392.538 599.440 386.786 599.080 383.468 599.051 C 380.150 599.023 375.111 598.397 372.269 597.660 C 365.881 596.003 363.816 596.924 367.472 599.800 C 371.456 602.933 378.363 604.837 390.000 606.009 C 409.393 607.962 407.364 606.770 414.575 620.447 C 418.040 627.018 420.675 632.717 420.431 633.111 C 420.187 633.506 420.410 633.980 420.926 634.165 C 421.442 634.349 427.065 645.075 433.422 658.000 L 444.981 681.500 437.798 681.188 C 424.747 680.621 407.478 676.154 382.311 666.835 C 376.144 664.552 373.702 664.731 375.842 667.309 C 377.689 669.535 390.025 676.509 397.000 679.272 C 405.932 682.809 417.366 685.569 431.000 687.479 C 437.325 688.365 444.185 689.408 446.244 689.795 L 449.987 690.500 462.421 716.000 C 469.259 730.025 475.000 742.062 475.177 742.748 C 475.539 744.148 456.106 732.238 438.255 720.119 C 410.126 701.022 367.847 668.458 347.000 649.832 C 336.953 640.856 336.401 640.150 334.196 633.476 C 327.850 614.260 327.396 578.944 332.950 536.500 C 334.677 523.300 336.730 506.478 337.511 499.117 C 338.293 491.757 339.145 485.522 339.405 485.262 C 339.665 485.002 340.595 485.174 341.472 485.644 C 342.621 486.261 342.538 485.941 341.174 484.500 C 339.240 482.456 336.952 475.581 338.844 477.500 C 339.387 478.050 345.315 489.075 352.018 502.000 "/></g>
<g fill="#A0C551FD" stroke="#A0C551FD">
<path d="M 698.906 469.958 C 679.879 476.445 658.954 483.892 652.406 486.506 C 597.603 508.381 566.891 538.207 542.748 593.000 C 525.529 632.081 513.781 690.079 513.579 737.000 L 513.500 755.500 517.118 762.695 L 520.735 769.891 525.086 767.563 C 533.368 763.134 541.417 754.663 547.952 743.500 C 549.240 741.300 553.153 734.637 556.647 728.692 C 560.141 722.748 563.000 717.120 563.000 716.185 C 563.000 715.249 561.639 710.483 559.975 705.591 C 556.233 694.590 552.369 675.744 551.138 662.500 C 550.103 651.357 551.231 629.369 552.924 627.676 C 554.907 625.693 555.653 628.335 556.826 641.500 C 558.576 661.145 561.754 674.681 569.230 694.334 L 572.210 702.169 581.254 688.334 C 586.228 680.725 594.132 668.425 598.818 661.000 C 603.505 653.575 613.536 638.211 621.110 626.857 C 628.684 615.503 634.607 605.941 634.274 605.607 C 633.940 605.273 634.178 605.000 634.802 605.000 C 636.126 605.000 635.712 603.522 632.280 596.000 C 628.709 588.174 623.525 571.947 621.417 562.000 C 618.056 546.134 619.316 521.646 623.500 521.528 C 624.052 521.513 625.050 527.105 625.726 534.000 C 627.121 548.224 629.144 558.388 632.594 568.500 C 635.951 578.339 642.297 591.912 643.562 591.960 C 644.908 592.011 644.890 592.035 668.171 558.000 C 678.893 542.325 694.794 519.150 703.506 506.500 C 726.576 473.004 736.000 459.085 736.000 458.509 C 736.000 457.425 732.426 458.528 698.906 469.958 "/></g>
<g fill="#A0C551FD" stroke="#A0C551FD">
<path d="M 742.087 471.395 C 741.451 472.162 740.999 473.174 741.083 473.645 C 741.168 474.115 741.184 474.297 741.118 474.050 C 740.932 473.340 733.792 483.412 713.863 512.500 C 675.091 569.091 650.000 606.914 650.000 608.771 C 650.000 609.085 649.294 610.123 648.431 611.077 C 646.981 612.678 647.077 612.856 649.681 613.400 C 655.606 614.640 673.925 616.872 683.733 617.549 C 689.541 617.950 694.731 618.824 695.733 619.570 C 697.402 620.812 697.377 621.009 695.278 623.137 C 692.300 626.155 685.531 626.815 667.154 625.882 C 644.671 624.740 637.224 624.828 636.019 626.250 C 635.437 626.938 628.528 637.625 620.665 650.000 C 612.803 662.375 603.403 677.061 599.775 682.636 C 591.757 694.957 569.411 731.908 568.013 735.158 C 566.919 737.698 565.967 739.256 561.720 745.447 C 560.191 747.676 559.310 749.419 559.762 749.319 C 560.214 749.220 567.315 745.012 575.542 739.968 C 632.684 704.933 678.191 669.864 717.547 630.534 C 745.681 602.419 748.023 598.364 748.751 576.500 C 749.004 568.902 748.494 555.396 747.524 544.000 C 746.611 533.275 745.605 512.238 745.288 497.250 C 744.971 482.263 744.382 470.000 743.979 470.000 C 743.575 470.000 742.724 470.628 742.087 471.395 "/></g>
<g fill="#A0C551FD" stroke="#A0C551FD">
<path d="M 339.076 496.269 C 338.380 502.446 337.394 509.525 336.885 512.000 C 336.375 514.475 335.052 522.800 333.944 530.500 C 327.376 576.147 327.357 610.966 333.888 632.691 C 335.915 639.434 336.532 640.317 343.775 646.845 C 359.131 660.686 373.495 671.918 373.602 670.170 C 373.658 669.251 373.820 668.500 373.963 668.500 C 374.105 668.500 374.139 667.488 374.039 666.250 C 373.815 663.481 374.599 663.460 381.239 666.058 C 384.133 667.190 387.625 668.342 389.000 668.617 C 390.375 668.892 391.642 669.516 391.815 670.003 C 391.988 670.489 392.775 670.640 393.565 670.337 C 394.354 670.034 395.000 670.270 395.000 670.862 C 395.000 671.453 395.675 671.678 396.500 671.362 C 397.325 671.045 398.000 671.311 398.000 671.952 C 398.000 672.593 398.371 672.889 398.824 672.609 C 399.277 672.329 402.504 672.989 405.996 674.076 C 409.488 675.163 412.830 675.868 413.422 675.642 C 414.447 675.253 413.953 674.982 409.767 673.634 C 408.396 673.193 408.171 672.390 408.686 669.788 C 409.044 667.980 410.049 665.952 410.919 665.282 C 411.788 664.612 412.050 664.049 411.500 664.032 C 410.510 664.000 409.974 660.837 410.139 656.000 C 410.186 654.625 410.248 652.825 410.278 652.000 C 410.307 651.175 410.054 647.913 409.717 644.750 C 409.221 640.113 409.383 639.000 410.551 639.000 C 411.348 639.000 412.000 638.073 412.000 636.941 C 412.000 635.809 411.597 635.131 411.105 635.435 C 409.753 636.271 408.815 632.928 410.000 631.500 C 410.569 630.814 410.754 629.521 410.410 628.627 C 410.024 627.619 410.303 626.994 411.143 626.985 C 412.268 626.972 412.271 626.825 411.166 626.124 C 410.116 625.458 410.222 625.102 411.666 624.449 C 413.007 623.842 413.097 623.603 412.000 623.560 C 411.175 623.527 410.455 622.600 410.399 621.500 C 410.344 620.400 409.769 618.200 409.121 616.611 C 408.474 615.023 408.166 613.501 408.437 613.230 C 409.762 611.905 406.691 609.000 403.965 609.000 C 402.334 609.000 401.000 608.592 401.000 608.094 C 401.000 607.595 400.151 607.409 399.113 607.681 C 398.075 607.952 396.922 607.683 396.552 607.083 C 396.181 606.484 394.876 606.244 393.653 606.551 C 386.220 608.417 364.000 601.907 364.000 597.863 C 364.000 595.735 365.089 595.583 370.007 597.024 C 371.928 597.587 378.225 598.285 384.000 598.576 C 389.775 598.867 395.019 599.275 395.652 599.483 C 397.917 600.228 397.783 598.748 394.968 591.922 C 393.398 588.115 392.325 585.000 392.583 585.000 C 393.049 585.000 359.728 518.456 358.263 516.461 C 357.843 515.889 357.354 514.764 357.175 513.961 C 356.996 513.157 356.434 512.350 355.925 512.167 C 355.416 511.983 355.000 510.971 355.000 509.917 C 355.000 508.863 354.580 508.000 354.067 508.000 C 353.193 508.000 351.432 503.958 351.939 503.112 C 352.066 502.898 351.745 502.448 351.225 502.112 C 350.015 501.329 346.523 494.740 346.794 493.750 C 346.907 493.338 346.605 493.000 346.121 493.000 C 345.638 493.000 344.690 491.665 344.014 490.033 C 341.269 483.406 340.401 484.502 339.076 496.269 "/></g>
<g fill="#7DB464FD" stroke="#7DB464FD">
<path d="M 407.665 516.079 C 406.730 517.170 406.500 518.000 407.132 518.000 C 407.879 518.000 407.827 518.504 406.972 519.534 C 405.988 520.719 405.962 521.572 406.856 523.284 C 408.443 526.324 408.981 538.427 407.798 544.500 C 406.317 552.106 405.991 559.284 407.068 560.582 C 407.600 561.223 407.739 562.516 407.378 563.457 C 406.857 564.815 406.547 564.893 405.876 563.834 C 405.197 562.762 405.017 562.794 404.962 564.000 C 404.924 564.825 404.734 568.200 404.539 571.500 C 404.311 575.346 404.485 576.782 405.022 575.500 C 405.633 574.041 405.874 574.854 405.912 578.500 L 405.964 583.500 403.001 578.124 C 401.371 575.168 400.323 572.286 400.673 571.720 C 401.023 571.154 400.864 570.966 400.319 571.303 C 399.775 571.639 398.524 570.471 397.539 568.707 C 396.554 566.943 398.228 570.450 401.259 576.500 C 404.290 582.550 407.119 587.347 407.545 587.160 C 407.971 586.974 408.755 587.598 409.287 588.548 C 409.972 589.773 409.926 590.072 409.126 589.578 C 407.526 588.589 407.716 589.522 410.038 594.075 C 411.260 596.469 412.524 597.794 413.193 597.381 C 413.871 596.962 414.029 597.144 413.595 597.846 C 413.005 598.801 445.061 663.399 446.920 665.000 C 447.239 665.275 447.646 666.175 447.825 667.000 C 448.004 667.825 448.569 668.651 449.081 668.835 C 449.593 669.020 449.758 669.582 449.447 670.085 C 449.136 670.588 449.385 671.000 450.000 671.000 C 450.615 671.000 450.840 671.450 450.500 672.000 C 450.160 672.550 450.385 673.000 451.000 673.000 C 451.615 673.000 451.840 673.450 451.500 674.000 C 451.160 674.550 451.385 675.000 452.000 675.000 C 452.615 675.000 452.840 675.450 452.500 676.000 C 452.160 676.550 452.385 677.000 453.000 677.000 C 453.615 677.000 453.869 677.403 453.565 677.895 C 453.260 678.388 453.731 679.066 454.609 679.404 C 455.521 679.753 455.961 680.658 455.635 681.508 C 455.320 682.329 455.525 683.000 456.090 683.000 C 456.656 683.000 456.797 683.520 456.405 684.155 C 455.930 684.923 456.134 685.035 457.015 684.490 C 457.985 683.891 458.164 684.132 457.681 685.388 C 457.238 686.544 457.401 686.870 458.181 686.388 C 458.962 685.905 459.125 686.231 458.681 687.388 C 458.315 688.343 458.433 688.850 458.948 688.532 C 460.120 687.808 459.882 684.000 458.665 684.000 C 458.164 684.000 458.373 683.239 459.128 682.308 C 459.882 681.377 459.977 680.930 459.337 681.313 C 458.489 681.822 458.313 680.589 458.686 676.755 C 458.966 673.865 459.605 671.349 460.104 671.165 C 460.604 670.980 460.758 670.418 460.447 669.915 C 460.136 669.412 460.233 668.438 460.662 667.750 C 461.536 666.350 461.950 664.146 462.308 659.000 C 462.441 657.075 462.878 654.978 463.279 654.340 C 463.680 653.701 464.069 651.226 464.144 648.840 C 464.220 646.453 464.641 644.036 465.081 643.469 C 465.522 642.902 465.967 639.077 466.072 634.969 C 466.177 630.861 466.652 627.005 467.129 626.401 C 467.605 625.796 468.190 620.479 468.430 614.585 C 468.669 608.690 469.290 603.335 469.809 602.684 C 470.328 602.033 471.064 598.932 471.443 595.794 C 472.000 591.191 471.742 589.204 470.108 585.511 C 468.994 582.993 468.483 581.181 468.972 581.483 C 469.462 581.785 470.187 581.506 470.585 580.862 C 471.070 580.077 470.872 579.961 469.985 580.510 C 469.002 581.117 468.839 580.862 469.353 579.523 C 469.943 577.986 469.816 577.908 468.500 579.000 C 467.184 580.092 467.057 580.014 467.647 578.477 C 468.098 577.302 467.962 576.905 467.257 577.341 C 466.570 577.766 466.274 577.105 466.447 575.533 C 466.596 574.170 466.332 573.295 465.859 573.587 C 465.387 573.879 465.000 573.641 465.000 573.059 C 465.000 572.477 464.990 571.785 464.977 571.523 C 464.965 571.260 463.816 569.906 462.423 568.514 C 461.031 567.122 460.170 565.534 460.510 564.985 C 460.849 564.435 460.426 563.717 459.569 563.388 C 458.712 563.059 458.230 562.437 458.497 562.005 C 458.764 561.572 457.749 560.394 456.241 559.385 C 454.550 558.254 454.075 557.528 455.000 557.491 C 455.967 557.451 455.691 556.980 454.222 556.164 C 452.969 555.469 452.173 554.529 452.453 554.076 C 452.733 553.623 451.846 552.413 450.481 551.389 C 449.117 550.364 448.000 549.043 448.000 548.453 C 448.000 545.860 421.171 521.575 411.905 515.780 C 409.471 514.257 409.208 514.276 407.665 516.079 "/></g>
<g fill="#55A064FD" stroke="#55A064FD">
<path d="M 465.460 573.740 C 466.329 575.521 467.031 577.209 467.020 577.490 C 467.009 577.770 467.069 577.888 467.152 577.750 C 467.236 577.613 467.409 577.950 467.537 578.500 C 467.665 579.050 467.879 579.275 468.012 579.000 C 468.146 578.725 468.376 579.400 468.523 580.500 C 468.670 581.600 469.539 584.236 470.454 586.358 C 472.196 590.399 471.810 600.175 469.809 602.684 C 469.290 603.335 468.669 608.690 468.430 614.585 C 468.190 620.479 467.605 625.796 467.129 626.401 C 466.652 627.005 466.177 630.861 466.072 634.969 C 465.967 639.077 465.522 642.902 465.081 643.469 C 464.641 644.036 464.220 646.453 464.144 648.840 C 464.069 651.226 463.680 653.701 463.279 654.340 C 462.878 654.978 462.441 657.075 462.308 659.000 C 461.950 664.146 461.536 666.350 460.662 667.750 C 460.233 668.438 460.136 669.412 460.447 669.915 C 460.758 670.418 460.604 670.980 460.104 671.165 C 459.605 671.349 458.966 673.865 458.686 676.755 C 458.313 680.589 458.489 681.822 459.337 681.313 C 459.977 680.930 459.887 681.373 459.137 682.297 C 458.387 683.222 457.367 683.727 456.870 683.419 C 456.373 683.112 456.723 684.448 457.648 686.388 C 458.573 688.327 459.775 689.639 460.319 689.303 C 460.871 688.962 460.996 689.198 460.601 689.836 C 459.851 691.051 473.466 719.986 475.376 721.235 C 476.008 721.648 476.062 721.983 475.500 722.000 C 474.921 722.018 474.965 722.340 475.605 722.765 C 476.212 723.169 477.432 724.850 478.315 726.500 L 479.920 729.500 480.075 723.000 C 480.268 714.941 480.269 714.937 481.611 712.500 C 482.996 709.984 485.102 701.471 484.758 699.775 C 484.616 699.074 485.013 698.596 485.639 698.713 C 486.313 698.839 487.053 696.735 487.449 693.564 C 487.871 690.188 488.836 687.554 490.056 686.450 C 491.602 685.051 491.751 684.405 490.794 683.251 C 489.839 682.100 489.941 681.613 491.297 680.854 C 492.234 680.329 493.000 679.023 493.000 677.950 C 493.000 676.878 493.375 676.000 493.833 676.000 C 494.292 676.000 494.717 675.438 494.778 674.750 C 495.169 670.351 496.246 664.482 497.051 662.365 C 497.728 660.585 497.677 660.081 496.872 660.579 C 496.095 661.060 495.880 660.154 496.174 657.636 C 496.407 655.636 496.186 654.000 495.683 654.000 C 495.179 654.000 494.982 652.875 495.245 651.500 C 495.508 650.125 495.283 649.000 494.745 649.000 C 494.207 649.000 493.982 647.875 494.245 646.500 C 494.508 645.125 494.283 644.000 493.745 644.000 C 493.207 644.000 492.996 643.122 493.277 642.048 C 493.558 640.974 493.407 639.962 492.943 639.798 C 492.478 639.634 491.927 637.814 491.718 635.753 C 491.509 633.691 491.068 631.735 490.738 631.405 C 490.408 631.075 490.380 630.173 490.676 629.402 C 490.972 628.631 490.668 628.000 490.000 628.000 C 489.332 628.000 489.024 627.380 489.315 626.622 C 489.606 625.864 489.339 624.739 488.722 624.122 C 488.105 623.505 487.902 623.000 488.272 623.000 C 490.712 623.000 471.282 579.509 465.934 573.000 L 463.880 570.500 465.460 573.740 "/></g>
<g fill="#A0C551FD" stroke="#A0C551FD">
<path d="M 347.000 474.949 C 347.000 475.527 347.477 476.000 348.059 476.000 C 348.641 476.000 348.864 476.412 348.553 476.915 C 348.242 477.418 348.328 477.980 348.744 478.165 C 349.160 478.349 350.547 480.750 351.828 483.500 C 353.108 486.250 359.633 498.762 366.328 511.304 C 373.022 523.846 380.902 538.696 383.837 544.304 C 386.773 549.912 389.588 554.651 390.094 554.835 C 390.599 555.020 390.758 555.582 390.447 556.085 C 390.136 556.588 390.385 557.000 391.000 557.000 C 391.615 557.000 391.840 557.450 391.500 558.000 C 391.160 558.550 391.246 559.001 391.691 559.001 C 392.136 559.002 394.059 561.894 395.964 565.428 C 397.870 568.962 399.852 571.592 400.369 571.272 C 400.886 570.952 401.023 571.154 400.673 571.720 C 400.323 572.286 401.371 575.168 403.001 578.124 L 405.964 583.500 405.912 578.500 C 405.874 574.854 405.633 574.041 405.022 575.500 C 404.485 576.782 404.311 575.346 404.539 571.500 C 404.734 568.200 404.924 564.825 404.962 564.000 C 405.017 562.794 405.197 562.762 405.876 563.834 C 406.547 564.893 406.857 564.815 407.378 563.457 C 407.739 562.516 407.600 561.223 407.068 560.582 C 405.991 559.284 406.317 552.106 407.798 544.500 C 408.981 538.427 408.443 526.324 406.856 523.284 C 405.962 521.572 405.988 520.719 406.972 519.534 C 407.922 518.390 407.942 518.000 407.051 518.000 C 406.286 518.000 406.422 517.435 407.429 516.429 C 409.121 514.736 409.601 512.511 408.069 513.457 C 407.557 513.774 406.856 513.575 406.510 513.016 C 406.165 512.457 405.009 512.000 403.941 512.000 C 402.873 512.000 402.000 511.550 402.000 511.000 C 402.000 510.450 401.438 510.113 400.750 510.250 C 400.063 510.388 399.497 509.678 399.492 508.674 C 399.488 507.670 399.161 507.172 398.766 507.567 C 398.371 507.963 397.764 507.549 397.419 506.649 C 397.073 505.748 396.384 505.262 395.888 505.569 C 395.392 505.876 394.717 505.426 394.388 504.569 C 394.059 503.712 393.388 503.260 392.895 503.565 C 392.403 503.869 392.000 503.641 392.000 503.059 C 392.000 502.477 391.325 502.000 390.500 502.000 C 389.675 502.000 389.000 501.550 389.000 501.000 C 389.000 500.450 388.325 500.000 387.500 500.000 C 386.675 500.000 386.000 499.523 386.000 498.941 C 386.000 498.359 385.618 498.118 385.151 498.406 C 384.685 498.695 383.354 498.046 382.193 496.965 C 381.033 495.884 379.615 495.000 379.042 495.000 C 378.469 495.000 378.000 494.523 378.000 493.941 C 378.000 493.359 377.550 493.160 377.000 493.500 C 376.450 493.840 376.000 493.641 376.000 493.059 C 376.000 492.477 375.325 492.000 374.500 492.000 C 373.675 492.000 373.000 491.550 373.000 491.000 C 373.000 490.450 372.325 490.000 371.500 490.000 C 370.675 490.000 370.000 489.599 370.000 489.108 C 370.000 488.618 368.952 487.954 367.672 487.633 C 366.392 487.311 364.169 485.960 362.734 484.629 C 361.298 483.299 359.941 482.392 359.718 482.615 C 359.496 482.838 358.118 481.912 356.657 480.558 C 355.196 479.203 354.000 478.352 354.000 478.666 C 354.000 478.980 352.425 478.036 350.500 476.568 C 348.575 475.100 347.000 474.371 347.000 474.949 "/></g>
<g fill="#7DB464FD" stroke="#7DB464FD">
<path d="M 424.733 687.709 C 423.211 687.944 422.225 688.555 422.542 689.068 C 423.045 689.882 421.686 690.181 416.750 690.340 C 415.546 690.379 416.827 689.716 420.000 688.658 C 420.825 688.383 420.289 688.122 418.809 688.079 C 417.329 688.036 415.840 688.450 415.500 689.000 C 415.160 689.550 413.751 690.000 412.370 690.000 C 410.086 690.000 410.000 690.143 411.429 691.571 C 412.293 692.436 412.993 693.673 412.985 694.321 C 412.965 695.849 411.059 698.814 410.941 697.500 C 410.892 696.950 410.655 697.562 410.415 698.861 C 410.078 700.683 410.335 701.085 411.541 700.623 C 412.564 700.230 412.857 700.423 412.388 701.181 C 411.921 701.937 412.209 702.134 413.214 701.748 C 414.062 701.423 415.245 701.684 415.842 702.328 C 416.645 703.194 416.524 703.369 415.379 703.000 C 413.736 702.469 415.180 703.675 424.000 710.197 C 432.656 716.597 456.000 732.099 456.000 731.446 C 456.000 731.122 456.637 731.494 457.415 732.272 C 459.253 734.110 473.095 742.737 474.897 743.168 C 475.660 743.351 475.272 742.522 474.036 741.327 C 472.611 739.949 472.080 738.667 472.586 737.827 C 473.214 736.783 473.076 736.748 471.942 737.663 C 470.816 738.572 469.997 738.419 468.202 736.964 C 465.631 734.880 465.033 732.959 464.482 725.000 C 464.272 721.975 464.064 719.950 464.020 720.500 C 463.976 721.050 463.479 720.709 462.915 719.742 C 462.352 718.775 462.168 717.538 462.505 716.992 C 462.842 716.446 462.615 716.000 462.000 716.000 C 461.385 716.000 461.160 715.550 461.500 715.000 C 461.840 714.450 461.615 714.000 461.000 714.000 C 460.385 714.000 460.160 713.550 460.500 713.000 C 460.840 712.450 460.615 712.000 460.000 712.000 C 459.385 712.000 459.160 711.550 459.500 711.000 C 459.840 710.450 459.615 710.000 459.000 710.000 C 458.385 710.000 458.160 709.550 458.500 709.000 C 458.840 708.450 458.615 708.000 458.000 708.000 C 457.385 708.000 457.160 707.550 457.500 707.000 C 457.840 706.450 457.615 706.000 457.000 706.000 C 456.385 706.000 456.160 705.550 456.500 705.000 C 456.840 704.450 456.615 704.000 456.000 704.000 C 455.385 704.000 455.160 703.550 455.500 703.000 C 455.840 702.450 455.641 702.000 455.059 702.000 C 454.477 702.000 454.108 701.663 454.241 701.250 C 454.470 700.535 450.214 690.000 449.696 690.000 C 449.334 690.000 432.943 688.021 430.000 687.622 C 428.625 687.435 426.255 687.475 424.733 687.709 "/></g>
<g fill="#7DB464FD" stroke="#7DB464FD">
<path d="M 401.000 608.201 C 401.000 608.640 402.334 609.000 403.965 609.000 C 406.691 609.000 409.762 611.905 408.437 613.230 C 408.166 613.501 408.474 615.023 409.121 616.611 C 409.769 618.200 410.344 620.400 410.399 621.500 C 410.455 622.600 411.175 623.527 412.000 623.560 C 413.097 623.603 413.007 623.842 411.666 624.449 C 410.222 625.102 410.116 625.458 411.166 626.124 C 412.271 626.825 412.268 626.972 411.143 626.985 C 410.303 626.994 410.024 627.619 410.410 628.627 C 410.754 629.521 410.569 630.814 410.000 631.500 C 408.815 632.928 409.753 636.271 411.105 635.435 C 411.597 635.131 412.000 635.809 412.000 636.941 C 412.000 638.073 411.348 639.000 410.551 639.000 C 409.383 639.000 409.221 640.113 409.717 644.750 C 410.054 647.913 410.307 651.175 410.278 652.000 C 410.248 652.825 410.186 654.625 410.139 656.000 C 409.974 660.837 410.510 664.000 411.500 664.032 C 412.050 664.049 411.788 664.612 410.919 665.282 C 408.619 667.053 407.619 672.947 409.517 673.538 C 413.515 674.783 414.411 675.267 413.422 675.642 C 412.830 675.868 409.474 675.158 405.965 674.066 C 402.457 672.974 399.411 672.256 399.196 672.470 C 398.076 673.590 427.890 681.000 433.516 681.000 C 435.320 681.000 435.701 680.571 435.290 679.000 C 435.002 677.900 434.383 677.000 433.915 677.000 C 433.446 677.000 433.269 676.438 433.521 675.750 C 434.185 673.939 430.521 662.820 429.560 663.732 C 429.115 664.154 429.063 663.488 429.443 662.250 C 429.832 660.984 429.709 660.000 429.161 660.000 C 428.625 660.000 428.423 659.100 428.710 658.000 C 428.998 656.900 428.745 656.000 428.148 656.000 C 427.551 656.000 427.322 655.325 427.638 654.500 C 427.955 653.674 427.668 653.000 427.000 653.000 C 426.314 653.000 426.045 652.325 426.382 651.448 C 426.768 650.442 426.574 650.145 425.831 650.604 C 425.051 651.086 424.865 650.623 425.249 649.155 C 425.614 647.759 425.434 647.232 424.737 647.663 C 424.052 648.086 423.897 647.711 424.311 646.631 C 424.954 644.955 419.349 630.836 417.774 630.165 C 417.342 629.980 417.242 629.418 417.553 628.915 C 417.864 628.412 417.667 628.000 417.116 628.000 C 416.566 628.000 416.288 627.100 416.500 626.000 C 416.712 624.900 416.434 624.000 415.884 624.000 C 415.333 624.000 415.160 623.550 415.500 623.000 C 415.840 622.450 415.304 621.993 414.309 621.985 C 412.775 621.972 412.728 621.822 414.000 621.000 C 415.000 620.354 415.083 620.026 414.250 620.015 C 413.563 620.007 413.113 619.637 413.250 619.192 C 413.388 618.748 412.261 616.097 410.747 613.302 C 408.370 608.913 407.516 608.162 404.497 607.810 C 402.574 607.585 401.000 607.761 401.000 608.201 "/></g>
<g fill="#007C60FD" stroke="#007C60FD">
<path d="M 635.328 621.122 C 634.684 621.739 634.423 622.938 634.748 623.786 C 635.120 624.754 634.930 625.075 634.239 624.648 C 633.634 624.274 632.813 624.494 632.415 625.138 C 631.937 625.912 632.127 626.040 632.975 625.515 C 633.831 624.986 634.105 625.185 633.796 626.111 C 633.542 626.875 632.772 627.500 632.086 627.500 C 630.493 627.500 627.889 631.012 628.613 632.183 C 629.342 633.363 623.033 643.138 621.967 642.480 C 621.511 642.198 620.813 642.494 620.415 643.138 C 619.937 643.912 620.127 644.040 620.975 643.515 C 621.831 642.986 622.105 643.185 621.796 644.111 C 621.542 644.875 620.808 645.500 620.167 645.500 C 619.525 645.500 619.000 645.838 619.000 646.250 C 619.000 646.663 619.068 646.775 619.150 646.500 C 619.233 646.225 619.345 646.563 619.400 647.250 C 619.455 647.938 618.938 648.556 618.250 648.625 C 617.563 648.694 616.888 648.860 616.750 648.993 C 616.613 649.127 616.838 649.184 617.250 649.118 C 617.663 649.053 617.978 649.338 617.952 649.750 C 617.788 652.309 608.546 665.500 606.917 665.500 C 606.401 665.500 604.699 667.525 603.136 670.000 C 601.572 672.475 601.126 673.600 602.146 672.500 C 603.674 670.852 604.000 670.781 604.000 672.095 C 604.000 673.904 600.647 677.313 599.750 676.417 C 599.427 676.093 598.651 676.880 598.026 678.164 C 596.943 680.391 596.962 680.409 598.445 678.559 C 599.757 676.921 600.000 676.873 600.000 678.250 C 600.000 679.905 598.322 681.457 596.501 681.485 C 595.952 681.493 595.458 682.175 595.404 683.000 C 595.263 685.135 594.793 686.174 594.500 685.000 C 594.218 683.874 593.836 684.756 593.635 686.997 C 593.561 687.821 592.900 688.496 592.167 688.497 C 591.433 688.499 591.141 688.808 591.517 689.183 C 591.893 689.559 591.825 690.459 591.365 691.183 C 590.694 692.243 590.528 692.221 590.515 691.073 C 590.494 689.050 584.755 697.967 584.482 700.449 C 584.218 702.838 583.853 703.414 583.500 702.000 C 583.250 700.998 582.887 701.627 582.635 703.500 C 582.514 704.400 582.079 704.730 580.500 705.125 C 580.225 705.194 580.563 705.327 581.250 705.420 C 581.938 705.514 582.352 706.245 582.171 707.045 C 581.704 709.112 578.961 711.959 577.678 711.710 C 577.081 711.595 576.528 712.175 576.449 713.000 C 576.246 715.108 575.774 716.207 575.625 714.917 C 575.556 714.321 575.194 714.140 574.819 714.514 C 574.444 714.889 574.408 715.900 574.739 716.762 C 575.168 717.879 574.961 718.094 574.015 717.510 C 573.143 716.970 572.930 717.078 573.392 717.825 C 574.270 719.246 572.219 723.254 571.000 722.500 C 569.823 721.773 568.128 725.101 568.765 726.889 C 569.096 727.820 568.835 728.016 567.975 727.485 C 567.133 726.964 566.937 727.089 567.405 727.845 C 567.797 728.480 567.761 729.563 567.324 730.250 C 566.728 731.189 566.518 731.127 566.480 730.000 C 566.448 729.069 565.931 729.399 565.115 730.871 C 564.180 732.557 564.147 733.027 565.000 732.500 C 565.853 731.973 565.820 732.443 564.885 734.129 C 564.053 735.631 563.543 735.950 563.494 735.000 C 563.451 734.175 562.634 734.967 561.677 736.760 C 560.494 738.978 560.333 739.937 561.174 739.760 C 561.853 739.617 562.441 740.175 562.481 741.000 C 562.526 741.957 563.119 741.594 564.119 740.000 C 567.609 734.431 571.979 727.101 576.043 720.000 C 582.155 709.320 596.868 685.628 606.472 671.000 C 610.986 664.125 619.342 651.075 625.043 642.000 C 630.743 632.925 635.878 625.138 636.454 624.695 C 637.029 624.252 643.125 624.108 650.000 624.375 C 662.913 624.876 663.860 624.622 653.500 623.436 C 649.380 622.965 648.113 622.527 649.457 622.039 C 650.772 621.562 649.329 621.110 645.060 620.664 C 640.774 620.216 638.246 620.380 637.296 621.169 C 636.221 622.062 635.960 622.062 636.194 621.169 C 636.420 620.303 636.196 620.291 635.328 621.122 "/></g>
<g fill="#007C60FD" stroke="#007C60FD">
<path d="M 731.977 483.168 C 730.590 485.001 728.115 488.483 726.477 490.907 C 724.382 494.008 723.489 494.749 723.464 493.407 C 723.433 491.796 723.208 491.888 722.010 494.000 C 721.230 495.375 720.572 496.950 720.546 497.500 C 720.521 498.050 720.163 498.613 719.750 498.750 C 719.338 498.888 719.000 499.225 719.000 499.500 C 719.000 499.775 719.068 499.775 719.150 499.500 C 719.233 499.225 719.345 499.563 719.400 500.250 C 719.455 500.938 718.826 501.500 718.001 501.500 C 717.177 501.500 716.502 502.175 716.501 503.000 C 716.501 503.825 716.051 504.500 715.501 504.500 C 714.952 504.500 714.458 505.175 714.404 506.000 C 714.349 506.825 714.236 507.332 714.152 507.128 C 714.069 506.923 713.256 507.373 712.346 508.128 C 711.437 508.882 711.099 509.388 711.596 509.250 C 712.093 509.113 712.500 509.563 712.500 510.250 C 712.500 510.938 711.946 511.500 711.269 511.500 C 710.592 511.500 709.277 512.587 708.346 513.916 C 707.355 515.332 707.193 515.999 707.957 515.527 C 708.833 514.985 709.108 515.176 708.796 516.111 C 708.542 516.875 707.808 517.556 707.167 517.625 C 706.525 517.694 705.888 517.860 705.750 517.993 C 705.613 518.127 705.838 518.184 706.250 518.118 C 707.535 517.915 707.072 519.695 705.500 521.000 C 704.675 521.685 703.948 522.077 703.885 521.872 C 703.821 521.668 703.709 522.174 703.635 522.997 C 703.561 523.821 702.900 524.496 702.167 524.497 C 701.433 524.499 701.157 524.823 701.552 525.219 C 702.632 526.299 699.088 531.173 697.802 530.377 C 697.115 529.953 696.974 530.148 697.432 530.889 C 698.316 532.320 695.299 537.303 694.025 536.516 C 693.537 536.214 692.813 536.494 692.415 537.138 C 691.937 537.912 692.127 538.040 692.975 537.515 C 693.831 536.986 694.105 537.185 693.796 538.111 C 693.542 538.875 692.808 539.500 692.167 539.500 C 691.525 539.500 691.000 539.838 691.000 540.250 C 691.000 540.663 691.068 540.775 691.150 540.500 C 691.233 540.225 691.345 540.563 691.400 541.250 C 691.455 541.938 690.825 542.510 690.000 542.522 C 689.103 542.536 688.627 543.280 688.817 544.373 C 688.992 545.386 688.692 545.928 688.143 545.589 C 686.838 544.782 683.146 550.103 683.772 551.889 C 684.054 552.692 683.812 553.002 683.199 552.623 C 682.615 552.262 681.813 552.494 681.415 553.138 C 680.963 553.869 681.124 554.041 681.845 553.595 C 682.480 553.203 683.000 553.303 683.000 553.819 C 683.000 555.223 680.420 557.087 679.605 556.272 C 679.214 555.881 679.220 556.409 679.617 557.445 C 680.099 558.701 679.973 559.101 679.239 558.648 C 678.634 558.274 677.813 558.494 677.415 559.138 C 676.963 559.869 677.124 560.041 677.845 559.595 C 679.596 558.513 679.235 559.862 676.891 563.153 C 675.731 564.782 674.497 565.830 674.148 565.482 C 673.800 565.133 673.512 565.669 673.508 566.672 C 673.503 567.674 672.938 568.496 672.250 568.497 C 671.563 568.499 671.000 568.838 671.000 569.250 C 671.000 569.663 671.068 569.775 671.150 569.500 C 671.233 569.225 671.345 569.563 671.400 570.250 C 671.455 570.938 670.825 571.510 670.000 571.522 C 669.103 571.536 668.627 572.280 668.817 573.373 C 668.994 574.394 668.693 574.929 668.136 574.584 C 667.587 574.245 666.813 574.494 666.415 575.138 C 665.963 575.869 666.124 576.041 666.845 575.595 C 668.480 574.585 668.276 576.160 666.432 578.794 C 665.569 580.026 664.475 580.794 664.001 580.500 C 663.526 580.207 662.813 580.494 662.415 581.138 C 661.963 581.869 662.124 582.041 662.845 581.595 C 665.049 580.233 663.981 583.022 660.376 588.040 C 658.382 590.815 656.473 592.807 656.133 592.467 C 655.793 592.127 655.512 592.669 655.508 593.672 C 655.503 594.674 654.938 595.552 654.250 595.622 C 653.563 595.693 653.338 595.820 653.750 595.905 C 654.163 595.991 653.600 596.598 652.500 597.254 C 651.056 598.116 650.917 598.465 652.000 598.509 C 652.945 598.548 652.594 599.112 651.050 600.035 C 649.703 600.841 649.154 601.383 649.830 601.240 C 650.612 601.075 650.412 601.968 649.279 603.696 C 648.293 605.202 647.497 605.763 647.494 604.956 C 647.491 604.155 646.478 605.128 645.244 607.118 C 642.846 610.984 642.406 613.000 643.961 613.000 C 645.632 613.000 648.982 608.784 654.690 599.500 C 657.733 594.550 665.207 583.075 671.298 574.000 C 677.389 564.925 685.191 553.225 688.636 548.000 C 692.081 542.775 695.284 538.050 695.754 537.500 C 696.225 536.950 700.892 530.200 706.126 522.500 C 716.482 507.266 723.000 497.817 729.595 488.481 C 734.200 481.961 736.101 477.721 731.977 483.168 "/></g>
<g fill="#A0C551FD" stroke="#A0C551FD">
<path d="M 377.632 674.417 C 377.875 675.013 380.194 676.960 382.787 678.743 C 385.379 680.527 389.525 683.783 392.000 685.978 C 394.475 688.173 396.772 689.976 397.104 689.984 C 397.436 689.993 399.011 691.138 400.604 692.528 C 405.175 696.520 405.853 697.000 406.908 697.000 C 407.454 697.000 408.309 697.730 408.808 698.622 C 409.605 700.046 409.916 699.958 411.358 697.899 C 413.409 694.971 413.425 693.568 411.429 691.571 C 410.000 690.143 410.086 690.000 412.370 690.000 C 417.807 690.000 415.420 688.236 405.690 685.062 C 395.751 681.821 385.016 677.044 382.000 674.521 C 380.172 672.991 377.021 672.916 377.632 674.417 "/></g>
<g fill="#55A064FD" stroke="#55A064FD">
<path d="M 462.080 717.316 C 462.036 717.764 462.417 718.910 462.926 719.863 C 463.436 720.815 464.102 723.597 464.406 726.047 C 465.336 733.541 465.867 735.219 467.718 736.515 C 468.698 737.202 469.790 737.704 470.143 737.632 C 470.497 737.559 471.449 738.175 472.258 739.000 C 473.067 739.825 471.125 735.100 467.944 728.500 C 464.763 721.900 462.124 716.867 462.080 717.316 "/></g>
<g fill="#007C60FD" stroke="#007C60FD">
<path d="M 384.000 564.186 C 384.000 564.627 392.467 583.053 396.321 591.000 C 396.988 592.375 398.103 593.617 398.799 593.761 C 399.495 593.904 396.603 587.379 392.372 579.261 C 384.569 564.286 384.000 563.261 384.000 564.186 "/></g>
<g fill="#007C60FD" stroke="#007C60FD">
<path d="M 559.136 700.221 C 558.946 702.627 563.661 713.000 564.945 713.000 C 566.283 713.000 566.320 711.316 565.000 710.500 C 564.450 710.160 564.007 709.346 564.015 708.691 C 564.025 707.955 564.443 708.073 565.110 709.000 C 566.007 710.248 566.089 710.192 565.594 708.668 C 565.267 707.661 565.000 706.397 565.000 705.859 C 565.000 705.322 564.582 705.140 564.072 705.456 C 563.562 705.771 562.854 705.116 562.500 704.000 C 562.146 702.884 561.471 702.209 560.999 702.500 C 560.528 702.791 559.947 702.010 559.708 700.765 C 559.433 699.336 559.222 699.136 559.136 700.221 "/></g>
<g fill="#7DB464FD" stroke="#7DB464FD">
<path d="M 373.842 666.250 C 373.545 670.461 374.027 672.300 375.762 673.568 C 378.188 675.342 380.611 673.441 378.762 671.214 C 377.733 669.974 377.497 669.952 377.485 671.096 C 377.473 672.173 377.284 672.209 376.676 671.250 C 376.239 670.563 376.149 670.000 376.476 670.000 C 376.803 670.000 376.558 669.043 375.932 667.873 C 375.044 666.214 375.091 665.557 376.147 664.888 C 377.198 664.222 377.110 664.027 375.750 664.015 C 374.644 664.006 373.942 664.827 373.842 666.250 "/></g>
</svg>
